<?xml version="1.0" encoding="UTF-8"?>
<svg xmlns="http://www.w3.org/2000/svg" xmlns:xlink="http://www.w3.org/1999/xlink" fill-opacity="1" color-rendering="auto" color-interpolation="auto" stroke="black" text-rendering="auto" stroke-linecap="square" width="1041" stroke-miterlimit="10" stroke-opacity="1" shape-rendering="auto" fill="black" stroke-dasharray="none" font-weight="normal" stroke-width="1" height="833" font-family="'Dialog'" font-style="normal" stroke-linejoin="miter" font-size="12" stroke-dashoffset="0" image-rendering="auto">
  <!--Generated by ySVG-->
  <defs id="genericDefs"/>
  <g>
    <defs id="defs1">
      <clipPath clipPathUnits="userSpaceOnUse" id="clipPath1">
        <path d="M0 0 L1041 0 L1041 833 L0 833 L0 0 Z"/>
      </clipPath>
      <clipPath clipPathUnits="userSpaceOnUse" id="clipPath2">
        <path d="M-15 -833 L1026 -833 L1026 0 L-15 0 L-15 -833 Z"/>
      </clipPath>
    </defs>
    <g fill="white" transform="translate(15,833)" stroke="white">
      <rect x="-15" width="1041" height="833" y="-833" clip-path="url(#clipPath2)" stroke="none"/>
    </g>
    <g fill="rgb(254,254,254)" transform="matrix(1,0,0,1,15,833)" stroke="rgb(254,254,254)">
      <rect x="0" width="58.5" height="30" y="-165" clip-path="url(#clipPath2)" stroke="none"/>
    </g>
    <g stroke-miterlimit="1.45" font-family="sans-serif" transform="matrix(1,0,0,1,15,833)" stroke-linecap="butt">
      <text x="5.9062" xml:space="preserve" y="-145.2861" clip-path="url(#clipPath2)" stroke="none">projector</text>
      <rect fill="none" x="0" width="58.5" height="30" y="-165" clip-path="url(#clipPath2)"/>
    </g>
    <g fill="rgb(254,254,254)" transform="matrix(1,0,0,1,15,833)" stroke="rgb(254,254,254)">
      <rect x="111.25" width="188.5" height="30" y="-165" clip-path="url(#clipPath2)" stroke="none"/>
    </g>
    <g stroke-miterlimit="1.45" font-family="sans-serif" transform="matrix(1,0,0,1,15,833)" stroke-linecap="butt">
      <text x="113.4668" xml:space="preserve" y="-145.2861" clip-path="url(#clipPath2)" stroke="none">projectDOMNode(Node,Class&lt;T&gt;)</text>
      <rect fill="none" x="111.25" width="188.5" height="30" y="-165" clip-path="url(#clipPath2)"/>
    </g>
    <g fill="rgb(254,254,254)" transform="matrix(1,0,0,1,15,833)" stroke="rgb(254,254,254)">
      <rect x="88.5" width="234" height="30" y="-345" clip-path="url(#clipPath2)" stroke="none"/>
    </g>
    <g stroke-miterlimit="1.45" font-family="sans-serif" transform="matrix(1,0,0,1,15,833)" stroke-linecap="butt">
      <text x="101.4639" xml:space="preserve" y="-325.2861" clip-path="url(#clipPath2)" stroke="none">projectEmptyElement(String,Class&lt;T&gt;)</text>
      <rect fill="none" x="88.5" width="234" height="30" y="-345" clip-path="url(#clipPath2)"/>
    </g>
    <g fill="rgb(254,254,254)" transform="matrix(1,0,0,1,15,833)" stroke="rgb(254,254,254)">
      <rect x="98.25" width="214.5" height="30" y="-405" clip-path="url(#clipPath2)" stroke="none"/>
    </g>
    <g stroke-miterlimit="1.45" font-family="sans-serif" transform="matrix(1,0,0,1,15,833)" stroke-linecap="butt">
      <text x="112.4678" xml:space="preserve" y="-385.2861" clip-path="url(#clipPath2)" stroke="none">projectXMLString(String,Class&lt;T&gt;)</text>
      <rect fill="none" x="98.25" width="214.5" height="30" y="-405" clip-path="url(#clipPath2)"/>
    </g>
    <g fill="rgb(254,254,254)" transform="matrix(1,0,0,1,15,833)" stroke="rgb(254,254,254)">
      <rect x="108" width="195" height="30" y="-285" clip-path="url(#clipPath2)" stroke="none"/>
    </g>
    <g stroke-miterlimit="1.45" font-family="sans-serif" transform="matrix(1,0,0,1,15,833)" stroke-linecap="butt">
      <text x="113.4697" xml:space="preserve" y="-265.2861" clip-path="url(#clipPath2)" stroke="none">projectEmptyDocument(Class&lt;T&gt;)</text>
      <rect fill="none" x="108" width="195" height="30" y="-285" clip-path="url(#clipPath2)"/>
    </g>
    <g fill="rgb(254,254,254)" transform="matrix(1,0,0,1,15,833)" stroke="rgb(254,254,254)">
      <rect x="192.5" width="26" height="30" y="-225" clip-path="url(#clipPath2)" stroke="none"/>
    </g>
    <g stroke-miterlimit="1.45" font-family="sans-serif" transform="matrix(1,0,0,1,15,833)" stroke-linecap="butt">
      <text x="196.834" xml:space="preserve" y="-205.2861" clip-path="url(#clipPath2)" stroke="none">io()</text>
      <rect fill="none" x="192.5" width="26" height="30" y="-225" clip-path="url(#clipPath2)"/>
    </g>
    <g fill="rgb(254,254,254)" transform="matrix(1,0,0,1,15,833)" stroke="rgb(254,254,254)">
      <rect x="414.25" width="78" height="30" y="-45" clip-path="url(#clipPath2)" stroke="none"/>
    </g>
    <g stroke-miterlimit="1.45" font-family="sans-serif" transform="matrix(1,0,0,1,15,833)" stroke-linecap="butt">
      <text x="425.9102" xml:space="preserve" y="-25.2861" clip-path="url(#clipPath2)" stroke="none">file(String)</text>
      <rect fill="none" x="414.25" width="78" height="30" y="-45" clip-path="url(#clipPath2)"/>
    </g>
    <g fill="rgb(254,254,254)" transform="matrix(1,0,0,1,15,833)" stroke="rgb(254,254,254)">
      <rect x="651.75" width="136.5" height="30" y="-157.5" clip-path="url(#clipPath2)" stroke="none"/>
    </g>
    <g stroke-miterlimit="1.45" font-family="sans-serif" transform="matrix(1,0,0,1,15,833)" stroke-linecap="butt">
      <text x="653.9766" xml:space="preserve" y="-137.7861" clip-path="url(#clipPath2)" stroke="none">bindAsMapOf(Class&lt;T&gt;)</text>
      <rect fill="none" x="651.75" width="136.5" height="30" y="-157.5" clip-path="url(#clipPath2)"/>
    </g>
    <g fill="rgb(254,254,254)" transform="matrix(1,0,0,1,15,833)" stroke="rgb(254,254,254)">
      <rect x="664.75" width="110.5" height="30" y="-52.5" clip-path="url(#clipPath2)" stroke="none"/>
    </g>
    <g stroke-miterlimit="1.45" font-family="sans-serif" transform="matrix(1,0,0,1,15,833)" stroke-linecap="butt">
      <text x="672.6416" xml:space="preserve" y="-32.7861" clip-path="url(#clipPath2)" stroke="none">bindXPath(String)</text>
      <rect fill="none" x="664.75" width="110.5" height="30" y="-52.5" clip-path="url(#clipPath2)"/>
    </g>
    <g fill="rgb(254,254,254)" transform="matrix(1,0,0,1,15,833)" stroke="rgb(254,254,254)">
      <rect x="923" width="52" height="30" y="-577.5" clip-path="url(#clipPath2)" stroke="none"/>
    </g>
    <g stroke-miterlimit="1.45" font-family="sans-serif" transform="matrix(1,0,0,1,15,833)" stroke-linecap="butt">
      <text x="925.9932" xml:space="preserve" y="-557.7861" clip-path="url(#clipPath2)" stroke="none">asDate()</text>
      <rect fill="none" x="923" width="52" height="30" y="-577.5" clip-path="url(#clipPath2)"/>
    </g>
    <g fill="rgb(254,254,254)" transform="matrix(1,0,0,1,15,833)" stroke="rgb(254,254,254)">
      <rect x="916.5" width="65" height="30" y="-637.5" clip-path="url(#clipPath2)" stroke="none"/>
    </g>
    <g stroke-miterlimit="1.45" font-family="sans-serif" transform="matrix(1,0,0,1,15,833)" stroke-linecap="butt">
      <text x="922.9932" xml:space="preserve" y="-617.7861" clip-path="url(#clipPath2)" stroke="none">asString()</text>
      <rect fill="none" x="916.5" width="65" height="30" y="-637.5" clip-path="url(#clipPath2)"/>
    </g>
    <g fill="rgb(254,254,254)" transform="matrix(1,0,0,1,15,833)" stroke="rgb(254,254,254)">
      <rect x="910" width="78" height="30" y="-757.5" clip-path="url(#clipPath2)" stroke="none"/>
    </g>
    <g stroke-miterlimit="1.45" font-family="sans-serif" transform="matrix(1,0,0,1,15,833)" stroke-linecap="butt">
      <text x="912.9912" xml:space="preserve" y="-737.7861" clip-path="url(#clipPath2)" stroke="none">as(Class&lt;T&gt;)</text>
      <rect fill="none" x="910" width="78" height="30" y="-757.5" clip-path="url(#clipPath2)"/>
    </g>
    <g fill="rgb(254,254,254)" transform="matrix(1,0,0,1,15,833)" stroke="rgb(254,254,254)">
      <rect x="890.5" width="117" height="30" y="-697.5" clip-path="url(#clipPath2)" stroke="none"/>
    </g>
    <g stroke-miterlimit="1.45" font-family="sans-serif" transform="matrix(1,0,0,1,15,833)" stroke-linecap="butt">
      <text x="897.3203" xml:space="preserve" y="-677.7861" clip-path="url(#clipPath2)" stroke="none">asListOf(Class&lt;T&gt;)</text>
      <rect fill="none" x="890.5" width="117" height="30" y="-697.5" clip-path="url(#clipPath2)"/>
    </g>
    <g fill="rgb(254,254,254)" transform="matrix(1,0,0,1,15,833)" stroke="rgb(254,254,254)">
      <rect x="913.25" width="71.5" height="30" y="-457.5" clip-path="url(#clipPath2)" stroke="none"/>
    </g>
    <g stroke-miterlimit="1.45" font-family="sans-serif" transform="matrix(1,0,0,1,15,833)" stroke-linecap="butt">
      <text x="916.6475" xml:space="preserve" y="-437.7861" clip-path="url(#clipPath2)" stroke="none">asBoolean()</text>
      <rect fill="none" x="913.25" width="71.5" height="30" y="-457.5" clip-path="url(#clipPath2)"/>
    </g>
    <g fill="rgb(254,254,254)" transform="matrix(1,0,0,1,15,833)" stroke="rgb(254,254,254)">
      <rect x="926.25" width="45.5" height="30" y="-517.5" clip-path="url(#clipPath2)" stroke="none"/>
    </g>
    <g stroke-miterlimit="1.45" font-family="sans-serif" transform="matrix(1,0,0,1,15,833)" stroke-linecap="butt">
      <text x="931.9961" xml:space="preserve" y="-497.7861" clip-path="url(#clipPath2)" stroke="none">asInt()</text>
      <rect fill="none" x="926.25" width="45.5" height="30" y="-517.5" clip-path="url(#clipPath2)"/>
    </g>
    <g fill="rgb(254,254,254)" transform="matrix(1,0,0,1,15,833)" stroke="rgb(254,254,254)">
      <rect x="893.75" width="110.5" height="30" y="-47.5" clip-path="url(#clipPath2)" stroke="none"/>
    </g>
    <g stroke-miterlimit="1.45" font-family="sans-serif" transform="matrix(1,0,0,1,15,833)" stroke-linecap="butt">
      <text x="894.9854" xml:space="preserve" y="-27.7861" clip-path="url(#clipPath2)" stroke="none">asMapOf(Class&lt;T&gt;)</text>
      <rect fill="none" x="893.75" width="110.5" height="30" y="-47.5" clip-path="url(#clipPath2)"/>
    </g>
    <g fill="rgb(254,254,254)" transform="matrix(1,0,0,1,15,833)" stroke="rgb(254,254,254)">
      <rect x="420.75" width="65" height="30" y="-165" clip-path="url(#clipPath2)" stroke="none"/>
    </g>
    <g stroke-miterlimit="1.45" font-family="sans-serif" transform="matrix(1,0,0,1,15,833)" stroke-linecap="butt">
      <text x="431.916" xml:space="preserve" y="-145.2861" clip-path="url(#clipPath2)" stroke="none">file(File)</text>
      <rect fill="none" x="420.75" width="65" height="30" y="-165" clip-path="url(#clipPath2)"/>
    </g>
    <g fill="rgb(254,254,254)" transform="matrix(1,0,0,1,15,833)" stroke="rgb(254,254,254)">
      <rect x="388.25" width="130" height="30" y="-352.5" clip-path="url(#clipPath2)" stroke="none"/>
    </g>
    <g stroke-miterlimit="1.45" font-family="sans-serif" transform="matrix(1,0,0,1,15,833)" stroke-linecap="butt">
      <text x="393.5664" xml:space="preserve" y="-332.7861" clip-path="url(#clipPath2)" stroke="none">stream(OutputStream)</text>
      <rect fill="none" x="388.25" width="130" height="30" y="-352.5" clip-path="url(#clipPath2)"/>
    </g>
    <g fill="rgb(254,254,254)" transform="matrix(1,0,0,1,15,833)" stroke="rgb(254,254,254)">
      <rect x="677.75" width="84.5" height="30" y="-345" clip-path="url(#clipPath2)" stroke="none"/>
    </g>
    <g stroke-miterlimit="1.45" font-family="sans-serif" transform="matrix(1,0,0,1,15,833)" stroke-linecap="butt">
      <text x="685.9951" xml:space="preserve" y="-325.2861" clip-path="url(#clipPath2)" stroke="none">write(Object)</text>
      <rect fill="none" x="677.75" width="84.5" height="30" y="-345" clip-path="url(#clipPath2)"/>
    </g>
    <g fill="rgb(254,254,254)" transform="matrix(1,0,0,1,15,833)" stroke="rgb(254,254,254)">
      <rect x="391.5" width="123.5" height="30" y="-412.5" clip-path="url(#clipPath2)" stroke="none"/>
    </g>
    <g stroke-miterlimit="1.45" font-family="sans-serif" transform="matrix(1,0,0,1,15,833)" stroke-linecap="butt">
      <text x="398.2334" xml:space="preserve" y="-392.7861" clip-path="url(#clipPath2)" stroke="none">stream(InputStream)</text>
      <rect fill="none" x="391.5" width="123.5" height="30" y="-412.5" clip-path="url(#clipPath2)"/>
    </g>
    <g fill="rgb(254,254,254)" transform="matrix(1,0,0,1,15,833)" stroke="rgb(254,254,254)">
      <rect x="674.5" width="91" height="30" y="-405" clip-path="url(#clipPath2)" stroke="none"/>
    </g>
    <g stroke-miterlimit="1.45" font-family="sans-serif" transform="matrix(1,0,0,1,15,833)" stroke-linecap="butt">
      <text x="678.3193" xml:space="preserve" y="-385.2861" clip-path="url(#clipPath2)" stroke="none">read(Class&lt;T&gt;)</text>
      <rect fill="none" x="674.5" width="91" height="30" y="-405" clip-path="url(#clipPath2)"/>
    </g>
    <g fill="rgb(254,254,254)" transform="matrix(1,0,0,1,15,833)" stroke="rgb(254,254,254)">
      <rect x="664.75" width="110.5" height="30" y="-465" clip-path="url(#clipPath2)" stroke="none"/>
    </g>
    <g stroke-miterlimit="1.45" font-family="sans-serif" transform="matrix(1,0,0,1,15,833)" stroke-linecap="butt">
      <text x="672.9785" xml:space="preserve" y="-445.2861" clip-path="url(#clipPath2)" stroke="none">evalXPath(String)</text>
      <rect fill="none" x="664.75" width="110.5" height="30" y="-465" clip-path="url(#clipPath2)"/>
    </g>
    <g fill="rgb(254,254,254)" transform="matrix(1,0,0,1,15,833)" stroke="rgb(254,254,254)">
      <rect x="658.25" width="123.5" height="30" y="-525" clip-path="url(#clipPath2)" stroke="none"/>
    </g>
    <g stroke-miterlimit="1.45" font-family="sans-serif" transform="matrix(1,0,0,1,15,833)" stroke-linecap="butt">
      <text x="666.3223" xml:space="preserve" y="-505.2861" clip-path="url(#clipPath2)" stroke="none">setSystemID(String)</text>
      <rect fill="none" x="658.25" width="123.5" height="30" y="-525" clip-path="url(#clipPath2)"/>
    </g>
    <g fill="rgb(254,254,254)" transform="matrix(1,0,0,1,15,833)" stroke="rgb(254,254,254)">
      <rect x="887.25" width="123.5" height="30" y="-817.5" clip-path="url(#clipPath2)" stroke="none"/>
    </g>
    <g stroke-miterlimit="1.45" font-family="sans-serif" transform="matrix(1,0,0,1,15,833)" stroke-linecap="butt">
      <text x="892.3223" xml:space="preserve" y="-797.7861" clip-path="url(#clipPath2)" stroke="none">asArrayOf(Class&lt;T&gt;)</text>
      <rect fill="none" x="887.25" width="123.5" height="30" y="-817.5" clip-path="url(#clipPath2)"/>
    </g>
    <g fill="rgb(254,254,254)" transform="matrix(1,0,0,1,15,833)" stroke="rgb(254,254,254)">
      <rect x="417.5" width="71.5" height="30" y="-225" clip-path="url(#clipPath2)" stroke="none"/>
    </g>
    <g stroke-miterlimit="1.45" font-family="sans-serif" transform="matrix(1,0,0,1,15,833)" stroke-linecap="butt">
      <text x="426.9121" xml:space="preserve" y="-205.2861" clip-path="url(#clipPath2)" stroke="none">url(String)</text>
      <rect fill="none" x="417.5" width="71.5" height="30" y="-225" clip-path="url(#clipPath2)"/>
    </g>
    <g fill="rgb(254,254,254)" transform="matrix(1,0,0,1,15,833)" stroke="rgb(254,254,254)">
      <rect x="612.75" width="214.5" height="30" y="-285" clip-path="url(#clipPath2)" stroke="none"/>
    </g>
    <g stroke-miterlimit="1.45" font-family="sans-serif" transform="matrix(1,0,0,1,15,833)" stroke-linecap="butt">
      <text x="627.9551" xml:space="preserve" y="-265.2861" clip-path="url(#clipPath2)" stroke="none">addRequestProperty(String,String)</text>
      <rect fill="none" x="612.75" width="214.5" height="30" y="-285" clip-path="url(#clipPath2)"/>
    </g>
    <g fill="rgb(254,254,254)" transform="matrix(1,0,0,1,15,833)" stroke="rgb(254,254,254)">
      <rect x="619.25" width="201.5" height="30" y="-225" clip-path="url(#clipPath2)" stroke="none"/>
    </g>
    <g stroke-miterlimit="1.45" font-family="sans-serif" transform="matrix(1,0,0,1,15,833)" stroke-linecap="butt">
      <text x="626.2822" xml:space="preserve" y="-205.2861" clip-path="url(#clipPath2)" stroke="none">addRequestProperties(Map&lt;K, V&gt;)</text>
      <rect fill="none" x="619.25" width="201.5" height="30" y="-225" clip-path="url(#clipPath2)"/>
    </g>
    <g fill="rgb(254,254,254)" transform="matrix(1,0,0,1,15,833)" stroke="rgb(254,254,254)">
      <rect x="352.5" width="201.5" height="30" y="-105" clip-path="url(#clipPath2)" stroke="none"/>
    </g>
    <g stroke-miterlimit="1.45" font-family="sans-serif" transform="matrix(1,0,0,1,15,833)" stroke-linecap="butt">
      <text x="359.541" xml:space="preserve" y="-85.2861" clip-path="url(#clipPath2)" stroke="none">toURLAnnotationViaPOST(Object,)</text>
      <rect fill="none" x="352.5" width="201.5" height="30" y="-105" clip-path="url(#clipPath2)"/>
    </g>
    <g fill="rgb(254,254,254)" transform="matrix(1,0,0,1,15,833)" stroke="rgb(254,254,254)">
      <rect x="362.25" width="182" height="30" y="-285" clip-path="url(#clipPath2)" stroke="none"/>
    </g>
    <g stroke-miterlimit="1.45" font-family="sans-serif" transform="matrix(1,0,0,1,15,833)" stroke-linecap="butt">
      <text x="369.2178" xml:space="preserve" y="-265.2861" clip-path="url(#clipPath2)" stroke="none">fromURLAnnotation(Class&lt;T&gt;,)</text>
      <rect fill="none" x="362.25" width="182" height="30" y="-285" clip-path="url(#clipPath2)"/>
    </g>
    <g fill="rgb(254,254,254)" transform="matrix(1,0,0,1,15,833)" stroke="rgb(254,254,254)">
      <rect x="143.75" width="123.5" height="30" y="-472.5" clip-path="url(#clipPath2)" stroke="none"/>
    </g>
    <g stroke-miterlimit="1.45" font-family="sans-serif" transform="matrix(1,0,0,1,15,833)" stroke-linecap="butt">
      <text x="151.1455" xml:space="preserve" y="-452.7861" clip-path="url(#clipPath2)" stroke="none">onXMLString(String)</text>
      <rect fill="none" x="143.75" width="123.5" height="30" y="-472.5" clip-path="url(#clipPath2)"/>
    </g>
    <g fill="rgb(254,254,254)" transform="matrix(1,0,0,1,15,833)" stroke="rgb(254,254,254)">
      <rect x="368.75" width="169" height="30" y="-532.5" clip-path="url(#clipPath2)" stroke="none"/>
    </g>
    <g stroke-miterlimit="1.45" font-family="sans-serif" transform="matrix(1,0,0,1,15,833)" stroke-linecap="butt">
      <text x="380.2217" xml:space="preserve" y="-512.7861" clip-path="url(#clipPath2)" stroke="none">createProjection(Class&lt;T&gt;)</text>
      <rect fill="none" x="368.75" width="169" height="30" y="-532.5" clip-path="url(#clipPath2)"/>
    </g>
    <g fill="rgb(254,254,254)" transform="matrix(1,0,0,1,15,833)" stroke="rgb(254,254,254)">
      <rect x="385" width="136.5" height="30" y="-472.5" clip-path="url(#clipPath2)" stroke="none"/>
    </g>
    <g stroke-miterlimit="1.45" font-family="sans-serif" transform="matrix(1,0,0,1,15,833)" stroke-linecap="butt">
      <text x="388.8965" xml:space="preserve" y="-452.7861" clip-path="url(#clipPath2)" stroke="none">createMapOf(Class&lt;T&gt;)</text>
      <rect fill="none" x="385" width="136.5" height="30" y="-472.5" clip-path="url(#clipPath2)"/>
      <path fill="none" d="M58.5 -150 L103.2242 -150" clip-path="url(#clipPath2)"/>
      <path d="M111.2242 -150 L99.2242 -155 L102.2242 -150 L99.2242 -145 Z" clip-path="url(#clipPath2)" stroke="none"/>
      <path fill="none" d="M58.5 -150 L73.5 -150 L73.5 -330 L80.4707 -330" clip-path="url(#clipPath2)"/>
      <path d="M88.4707 -330 L76.4707 -335 L79.4707 -330 L76.4707 -325 Z" clip-path="url(#clipPath2)" stroke="none"/>
      <path fill="none" d="M58.5 -150 L73.5 -150 L73.5 -390 L90.2017 -390" clip-path="url(#clipPath2)"/>
      <path d="M98.2017 -390 L86.2017 -395 L89.2017 -390 L86.2017 -385 Z" clip-path="url(#clipPath2)" stroke="none"/>
      <path fill="none" d="M58.5 -150 L73.5 -150 L73.5 -270 L99.9663 -270" clip-path="url(#clipPath2)"/>
      <path d="M107.9663 -270 L95.9663 -275 L98.9663 -270 L95.9663 -265 Z" clip-path="url(#clipPath2)" stroke="none"/>
      <path fill="none" d="M58.5 -150 L73.5 -150 L73.5 -210 L184.4709 -210" clip-path="url(#clipPath2)"/>
      <path d="M192.4709 -210 L180.4709 -215 L183.4709 -210 L180.4709 -205 Z" clip-path="url(#clipPath2)" stroke="none"/>
      <path fill="none" d="M218.5 -210 L337.5 -210 L337.5 -30 L406.2125 -30" clip-path="url(#clipPath2)"/>
      <path d="M414.2125 -30 L402.2125 -35 L405.2125 -30 L402.2125 -25 Z" clip-path="url(#clipPath2)" stroke="none"/>
      <path fill="none" d="M492.25 -30 L621.75 -30 L621.75 -135 L643.7207 -135" clip-path="url(#clipPath2)"/>
      <path d="M651.7207 -135 L639.7207 -140 L642.7207 -135 L639.7207 -130 Z" clip-path="url(#clipPath2)" stroke="none"/>
      <path fill="none" d="M492.25 -30 L656.7079 -30" clip-path="url(#clipPath2)"/>
      <path d="M664.7079 -30 L652.7079 -35 L655.7079 -30 L652.7079 -25 Z" clip-path="url(#clipPath2)" stroke="none"/>
      <path fill="none" d="M775.25 -37.5 L857.25 -37.5 L857.25 -555 L914.9679 -555" clip-path="url(#clipPath2)"/>
      <path d="M922.9679 -555 L910.9679 -560 L913.9679 -555 L910.9679 -550 Z" clip-path="url(#clipPath2)" stroke="none"/>
      <path fill="none" d="M775.25 -37.5 L857.25 -37.5 L857.25 -615 L908.4711 -615" clip-path="url(#clipPath2)"/>
      <path d="M916.4711 -615 L904.4711 -620 L907.4711 -615 L904.4711 -610 Z" clip-path="url(#clipPath2)" stroke="none"/>
      <path fill="none" d="M775.25 -37.5 L857.25 -37.5 L857.25 -735 L901.9742 -735" clip-path="url(#clipPath2)"/>
      <path d="M909.9742 -735 L897.9742 -740 L900.9742 -735 L897.9742 -730 Z" clip-path="url(#clipPath2)" stroke="none"/>
      <path fill="none" d="M775.25 -37.5 L857.25 -37.5 L857.25 -675 L882.4675 -675" clip-path="url(#clipPath2)"/>
      <path d="M890.4675 -675 L878.4675 -680 L881.4675 -675 L878.4675 -670 Z" clip-path="url(#clipPath2)" stroke="none"/>
      <path fill="none" d="M775.25 -37.5 L857.25 -37.5 L857.25 -435 L905.2227 -435" clip-path="url(#clipPath2)"/>
      <path d="M913.2227 -435 L901.2227 -440 L904.2227 -435 L901.2227 -430 Z" clip-path="url(#clipPath2)" stroke="none"/>
      <path fill="none" d="M775.25 -37.5 L857.25 -37.5 L857.25 -495 L918.2163 -495" clip-path="url(#clipPath2)"/>
      <path d="M926.2163 -495 L914.2163 -500 L917.2163 -495 L914.2163 -490 Z" clip-path="url(#clipPath2)" stroke="none"/>
      <path fill="none" d="M775.25 -37.5 L885.7211 -37.5" clip-path="url(#clipPath2)"/>
      <path d="M893.7211 -37.5 L881.7211 -42.5 L884.7211 -37.5 L881.7211 -32.5 Z" clip-path="url(#clipPath2)" stroke="none"/>
      <path fill="none" d="M218.5 -210 L337.5 -210 L337.5 -150 L412.7094 -150" clip-path="url(#clipPath2)"/>
      <path d="M420.7094 -150 L408.7094 -155 L411.7094 -150 L408.7094 -145 Z" clip-path="url(#clipPath2)" stroke="none"/>
      <path fill="none" d="M485.75 -150 L643.7095 -150" clip-path="url(#clipPath2)"/>
      <path d="M651.7095 -150 L639.7095 -155 L642.7095 -150 L639.7095 -145 Z" clip-path="url(#clipPath2)" stroke="none"/>
      <path fill="none" d="M485.75 -150 L636.75 -150 L636.75 -45 L656.7227 -45" clip-path="url(#clipPath2)"/>
      <path d="M664.7227 -45 L652.7227 -50 L655.7227 -45 L652.7227 -40 Z" clip-path="url(#clipPath2)" stroke="none"/>
      <path fill="none" d="M218.5 -210 L337.5 -210 L337.5 -337.5 L380.2004 -337.5" clip-path="url(#clipPath2)"/>
      <path d="M388.2004 -337.5 L376.2004 -342.5 L379.2004 -337.5 L376.2004 -332.5 Z" clip-path="url(#clipPath2)" stroke="none"/>
      <path fill="none" d="M518.25 -337.5 L669.7111 -337.5" clip-path="url(#clipPath2)"/>
      <path d="M677.7111 -337.5 L665.7111 -342.5 L668.7111 -337.5 L665.7111 -332.5 Z" clip-path="url(#clipPath2)" stroke="none"/>
      <path fill="none" d="M218.5 -210 L337.5 -210 L337.5 -397.5 L383.4736 -397.5" clip-path="url(#clipPath2)"/>
      <path d="M391.4736 -397.5 L379.4736 -402.5 L382.4736 -397.5 L379.4736 -392.5 Z" clip-path="url(#clipPath2)" stroke="none"/>
      <path fill="none" d="M515 -390 L582.75 -390 L582.75 -450 L643.25 -450 L643.25 -397.5 L666.4695 -397.5" clip-path="url(#clipPath2)"/>
      <path d="M674.4695 -397.5 L662.4695 -402.5 L665.4695 -397.5 L662.4695 -392.5 Z" clip-path="url(#clipPath2)" stroke="none"/>
      <path fill="none" d="M515 -390 L582.75 -390 L582.75 -450 L656.71 -450" clip-path="url(#clipPath2)"/>
      <path d="M664.71 -450 L652.71 -455 L655.71 -450 L652.71 -445 Z" clip-path="url(#clipPath2)" stroke="none"/>
      <path fill="none" d="M775.25 -450 L872.25 -450 L872.25 -44.1667 L885.708 -44.1667" clip-path="url(#clipPath2)"/>
      <path d="M893.708 -44.1667 L881.708 -49.1667 L884.708 -44.1667 L881.708 -39.1667 Z" clip-path="url(#clipPath2)" stroke="none"/>
      <path fill="none" d="M775.25 -450 L872.25 -450 L872.25 -510 L918.2236 -510" clip-path="url(#clipPath2)"/>
      <path d="M926.2236 -510 L914.2236 -515 L917.2236 -510 L914.2236 -505 Z" clip-path="url(#clipPath2)" stroke="none"/>
      <path fill="none" d="M775.25 -450 L872.25 -450 L872.25 -690 L882.4644 -690" clip-path="url(#clipPath2)"/>
      <path d="M890.4644 -690 L878.4644 -695 L881.4644 -690 L878.4644 -685 Z" clip-path="url(#clipPath2)" stroke="none"/>
      <path fill="none" d="M775.25 -450 L905.2163 -450" clip-path="url(#clipPath2)"/>
      <path d="M913.2163 -450 L901.2163 -455 L904.2163 -450 L901.2163 -445 Z" clip-path="url(#clipPath2)" stroke="none"/>
      <path fill="none" d="M775.25 -450 L872.25 -450 L872.25 -570 L914.9504 -570" clip-path="url(#clipPath2)"/>
      <path d="M922.9504 -570 L910.9504 -575 L913.9504 -570 L910.9504 -565 Z" clip-path="url(#clipPath2)" stroke="none"/>
      <path fill="none" d="M775.25 -450 L872.25 -450 L872.25 -630 L908.4568 -630" clip-path="url(#clipPath2)"/>
      <path d="M916.4568 -630 L904.4568 -635 L907.4568 -630 L904.4568 -625 Z" clip-path="url(#clipPath2)" stroke="none"/>
      <path fill="none" d="M775.25 -450 L872.25 -450 L872.25 -750 L901.9631 -750" clip-path="url(#clipPath2)"/>
      <path d="M909.9631 -750 L897.9631 -755 L900.9631 -750 L897.9631 -745 Z" clip-path="url(#clipPath2)" stroke="none"/>
      <path fill="none" d="M515 -390 L582.75 -390 L582.75 -450 L643.25 -450 L643.25 -502.5 L650.2207 -502.5" clip-path="url(#clipPath2)"/>
      <path d="M658.2207 -502.5 L646.2207 -507.5 L649.2207 -502.5 L646.2207 -497.5 Z" clip-path="url(#clipPath2)" stroke="none"/>
      <path fill="none" d="M658.2058 -517.5 L567.75 -517.5 L567.75 -405 L523 -405" clip-path="url(#clipPath2)"/>
      <path d="M515 -405 L527 -400 L524 -405 L527 -410 Z" clip-path="url(#clipPath2)" stroke="none"/>
      <path fill="none" d="M775.25 -450 L872.25 -450 L872.25 -802.5 L879.2207 -802.5" clip-path="url(#clipPath2)"/>
      <path d="M887.2207 -802.5 L875.2207 -807.5 L878.2207 -802.5 L875.2207 -797.5 Z" clip-path="url(#clipPath2)" stroke="none"/>
      <path fill="none" d="M218.5 -210 L409.4514 -210" clip-path="url(#clipPath2)"/>
      <path d="M417.4514 -210 L405.4514 -215 L408.4514 -210 L405.4514 -205 Z" clip-path="url(#clipPath2)" stroke="none"/>
      <path fill="none" d="M489 -217.5 L597.75 -217.5 L597.75 -440 L656.7173 -440" clip-path="url(#clipPath2)"/>
      <path d="M664.7173 -440 L652.7173 -445 L655.7173 -440 L652.7173 -435 Z" clip-path="url(#clipPath2)" stroke="none"/>
      <path fill="none" d="M489 -217.5 L597.75 -217.5 L597.75 -300 L842.25 -300 L842.25 -22.5 L885.7249 -22.5" clip-path="url(#clipPath2)"/>
      <path d="M893.7249 -22.5 L881.7249 -27.5 L884.7249 -22.5 L881.7249 -17.5 Z" clip-path="url(#clipPath2)" stroke="none"/>
      <path fill="none" d="M489 -217.5 L597.75 -217.5 L597.75 -322.5 L669.7109 -322.5" clip-path="url(#clipPath2)"/>
      <path d="M677.7109 -322.5 L665.7109 -327.5 L668.7109 -322.5 L665.7109 -317.5 Z" clip-path="url(#clipPath2)" stroke="none"/>
      <path fill="none" d="M489 -217.5 L597.75 -217.5 L597.75 -382.5 L666.4625 -382.5" clip-path="url(#clipPath2)"/>
      <path d="M674.4625 -382.5 L662.4625 -387.5 L665.4625 -382.5 L662.4625 -377.5 Z" clip-path="url(#clipPath2)" stroke="none"/>
      <path fill="none" d="M489 -217.5 L597.75 -217.5 L597.75 -277.5 L604.7207 -277.5" clip-path="url(#clipPath2)"/>
      <path d="M612.7207 -277.5 L600.7207 -282.5 L603.7207 -277.5 L600.7207 -272.5 Z" clip-path="url(#clipPath2)" stroke="none"/>
      <path fill="none" d="M612.7207 -262.5 L582.75 -262.5 L582.75 -202.5 L497 -202.5" clip-path="url(#clipPath2)"/>
      <path d="M489 -202.5 L501 -197.5 L498 -202.5 L501 -207.5 Z" clip-path="url(#clipPath2)" stroke="none"/>
      <path fill="none" d="M489 -217.5 L611.2182 -217.5" clip-path="url(#clipPath2)"/>
      <path d="M619.2182 -217.5 L607.2182 -222.5 L610.2182 -217.5 L607.2182 -212.5 Z" clip-path="url(#clipPath2)" stroke="none"/>
      <path fill="none" d="M619.2182 -202.5 L497 -202.5" clip-path="url(#clipPath2)"/>
      <path d="M489 -202.5 L501 -197.5 L498 -202.5 L501 -207.5 Z" clip-path="url(#clipPath2)" stroke="none"/>
      <path fill="none" d="M218.5 -210 L337.5 -210 L337.5 -90 L344.4707 -90" clip-path="url(#clipPath2)"/>
      <path d="M352.4707 -90 L340.4707 -95 L343.4707 -90 L340.4707 -85 Z" clip-path="url(#clipPath2)" stroke="none"/>
      <path fill="none" d="M218.5 -210 L337.5 -210 L337.5 -270 L354.2017 -270" clip-path="url(#clipPath2)"/>
      <path d="M362.2017 -270 L350.2017 -275 L353.2017 -270 L350.2017 -265 Z" clip-path="url(#clipPath2)" stroke="none"/>
      <path fill="none" d="M58.5 -150 L73.5 -150 L73.5 -457.5 L135.7157 -457.5" clip-path="url(#clipPath2)"/>
      <path d="M143.7157 -457.5 L131.7157 -462.5 L134.7157 -457.5 L131.7157 -452.5 Z" clip-path="url(#clipPath2)" stroke="none"/>
      <path fill="none" d="M267.25 -457.5 L353.75 -457.5 L353.75 -487.5 L552.75 -487.5 L552.75 -460 L656.7227 -460" clip-path="url(#clipPath2)"/>
      <path d="M664.7227 -460 L652.7227 -465 L655.7227 -460 L652.7227 -455 Z" clip-path="url(#clipPath2)" stroke="none"/>
      <path fill="none" d="M267.25 -457.5 L353.75 -457.5 L353.75 -517.5 L360.7207 -517.5" clip-path="url(#clipPath2)"/>
      <path d="M368.7207 -517.5 L356.7207 -522.5 L359.7207 -517.5 L356.7207 -512.5 Z" clip-path="url(#clipPath2)" stroke="none"/>
      <path fill="none" d="M267.25 -457.5 L376.9713 -457.5" clip-path="url(#clipPath2)"/>
      <path d="M384.9713 -457.5 L372.9713 -462.5 L375.9713 -457.5 L372.9713 -452.5 Z" clip-path="url(#clipPath2)" stroke="none"/>
    </g>
  </g>
</svg>
